<svg xmlns="http://www.w3.org/2000/svg" xmlns:xlink="http://www.w3.org/1999/xlink" viewBox="0 0 641.23 646.2">
  <defs>
    <clipPath id="a9f6e666-f700-4acd-86f8-a5857e022f51" transform="translate(39.12 9.2)">
      <path d="M29.72,99.9c-14.3,11.4-22.4,29-25.5,46.7-1.6,9.1-1.1,18.7,2.7,27,5,11.1,15.6,19.1,27.2,22.5s24.3,2.5,35.9-.9c12.3-3.6,24.4-10.8,29.6-22.4,3.3-7.4,3.5-15.9,1.7-23.7s-5.4-15.2-9.5-22.1a163.1,163.1,0,0,0-11.9-17.5c-5.7-7.3-12.5-14.5-21.5-16.9a25.17,25.17,0,0,0-6.7-.9c-7.9-.2-15.7,3.2-22,8.2" fill="none"/>
    </clipPath>
    <clipPath id="bcca85bd-1ef9-429a-92d7-1948494a23ba" transform="translate(39.12 9.2)">
      <path d="M245.72,45.5c-31.6,4.4-47.3,33.9-65.8,59.1-8.3,11.2-17.1,21.6-28.2,28.6-19.7,12.4-43.8,18.9-58.9,36.5-18.2,21.2-18.1,53.7-6.3,79.1,25.6,54.7,91.4,89.8,150,92.4,40.4,1.8,81.8-12,111.1-39.9,19.8-18.9,33.7-43.4,43-69.1,17.5-48,2-102.1-27.2-143-13.8-19.3-27.7-31-50.4-38.4a144.4,144.4,0,0,0-44.7-6.9,154.16,154.16,0,0,0-22.6,1.6" fill="none"/>
    </clipPath>
    <clipPath id="bd1d4bb8-57d0-43e7-be6e-c4a175e0f45b" transform="translate(39.12 9.2)">
      <path d="M392.32,157.6a53.37,53.37,0,0,0-33.7,26.1,64.85,64.85,0,0,0-7.1,24.4c-1.4,14.1,1.3,29.1,9.3,40.3a40.26,40.26,0,0,0,17.7,14.1c5.9,2.4,12.1,4.3,18.4,4.3s12.9-2,17.4-6.5c5.6-5.6,7.3-13.9,11.5-20.6,3.2-5.1,7.7-9.1,11.6-13.7,7.1-8.5,11.7-19.4,11.8-30.5,0-11.9-4.8-23.8-14.8-30.5a53.4,53.4,0,0,0-29.5-8.8,48.24,48.24,0,0,0-12.6,1.4" fill="none"/>
    </clipPath>
    <clipPath id="b3f172e4-f9ac-41e0-adc9-214b30d84366" transform="translate(39.12 9.2)">
      <path d="M120.91,361.74A42.31,42.31,0,0,0,129,320.08c-2.81-7.69-7.88-14.5-13-20.91-7.36-9.06-15.37-17.91-25.43-23.73s-22.88-8-33.65-3.51c-11.31,4.81-18.44,16.2-24.47,27-3.81,6.72-7.44,13.57-8.56,21.19-2.26,15.44,7.35,30.59,20,39.71A92.17,92.17,0,0,0,70.34,373c17.71,5.32,36.92,3.89,50.57-11.3" fill="none"/>
    </clipPath>
    <clipPath id="a6fa5235-171c-4873-ad55-6bbeb9a21632" transform="translate(39.12 9.2)">
      <path d="M71.72,295.4a42.11,42.11,0,0,0,4.2,42.2c4.9,6.6,11.7,11.6,18.5,16.3,9.7,6.6,19.9,12.8,31.2,15.4s24.2,1.1,33.2-6.3c9.5-7.9,13-20.8,15.7-32.9,1.7-7.5,3.2-15.1,2.1-22.7-2.3-15.4-15.8-27.2-30.5-32.3a90.71,90.71,0,0,0-29.1-5c-18.6,0-36.6,6.8-45.3,25.3" fill="none"/>
    </clipPath>
    <clipPath id="a7f5e389-adef-4557-bf70-932fbfbfd30e" transform="translate(39.12 9.2)">
      <path d="M224.92,5c-10.9,6.4-18.2,17.9-29.5,23.6-8.8,4.5-19.3,5.1-27.9,10.1A30.1,30.1,0,0,0,156.42,50a31.25,31.25,0,0,0-4.1,19.6c1.6,11.8,11.5,22.6,22,27.7,15,7.3,28.2-2.7,42.5-6.8,18.6-5.3,41.2,2.5,57.1-10.8,7-5.9,11-14.9,11.9-24s-.9-18.3-4-26.9c-6-16.6-22-28.8-38.9-28.8a34.57,34.57,0,0,0-18,5" fill="none"/>
    </clipPath>
    <clipPath id="aa32b871-6641-48b5-9c83-469cff9ba868" transform="translate(39.12 9.2)">
      <rect x="360.22" y="81.6" width="30.9" height="20" rx="2.5" fill="none"/>
    </clipPath>
    <linearGradient id="eb5362b7-4a50-465a-9fec-995c4c5b5c2b" x1="-5536.14" y1="7490.7" x2="-5535.62" y2="7490.7" gradientTransform="matrix(0, -552.26, -552.26, 0, 4137226.09, -3057138.74)" gradientUnits="userSpaceOnUse">
      <stop offset="0" stop-color="#9dd7d5"/>
      <stop offset="1" stop-color="#0e9d97"/>
    </linearGradient>
    <clipPath id="bb237e9e-fbad-4e00-8ebd-c413c45fee4c" transform="translate(39.12 9.2)">
      <rect x="420.62" y="110.6" width="56.8" height="36.7" rx="2.5" fill="none"/>
    </clipPath>
    <linearGradient id="f2f0e09d-9f11-4f7b-beec-4f722fb5a996" x1="-5536.14" y1="7490.82" x2="-5535.62" y2="7490.82" gradientTransform="matrix(0, -552.26, -552.26, 0, 4137365.59, -3057138.74)" xlink:href="#eb5362b7-4a50-465a-9fec-995c4c5b5c2b"/>
    <clipPath id="a2cf8553-b43c-4951-a366-55055cf25170" transform="translate(39.12 9.2)">
      <rect x="3.32" y="191" width="30.9" height="20" rx="2.5" fill="none"/>
    </clipPath>
    <linearGradient id="a008ef3a-ce5d-4a49-98ed-a8508343da51" x1="-5536.14" y1="7490.12" x2="-5535.62" y2="7490.12" gradientTransform="matrix(0, -552.26, -552.26, 0, 4136546.34, -3057138.74)" xlink:href="#eb5362b7-4a50-465a-9fec-995c4c5b5c2b"/>
  </defs>
  <g id="ad3227cb-f314-40d1-a9ae-de8220697736" data-name="Layer 2">
    <g id="aad6d956-31f0-4b13-9def-97dffdbf6607" data-name="Layer 1">
      <g>
        <g>
          <g clip-path="url(#a9f6e666-f700-4acd-86f8-a5857e022f51)">
            <rect x="31.63" y="84.6" width="119.2" height="97.4" fill="#10bef0"/>
          </g>
          <g clip-path="url(#a9f6e666-f700-4acd-86f8-a5857e022f51)">
            <rect x="31.63" y="182" width="119.2" height="26.8" fill="#0383a4"/>
          </g>
          <g clip-path="url(#a9f6e666-f700-4acd-86f8-a5857e022f51)">
            <polygon points="51.43 182 140.33 182 80.53 196.4 51.43 182" fill="#f4f8fa"/>
          </g>
          <g clip-path="url(#a9f6e666-f700-4acd-86f8-a5857e022f51)">
            <rect x="58.23" y="176.3" width="57" height="1.8" fill="#b26e4b"/>
          </g>
          <g clip-path="url(#a9f6e666-f700-4acd-86f8-a5857e022f51)">
            <path d="M76.12,176.7H23.72a4.65,4.65,0,0,1-4.6-4.6v-3.2h57Z" transform="translate(39.12 9.2)" fill="#f9d1b7"/>
          </g>
          <g clip-path="url(#a9f6e666-f700-4acd-86f8-a5857e022f51)">
            <path d="M42.42,167.8H22.12a2.3,2.3,0,1,1,0-4.6h20.3a2.26,2.26,0,0,1,2.3,2.3,2.2,2.2,0,0,1-2.3,2.3" transform="translate(39.12 9.2)" fill="#f15961"/>
          </g>
          <g clip-path="url(#a9f6e666-f700-4acd-86f8-a5857e022f51)">
            <path d="M65.92,167.8H45.72a2.3,2.3,0,1,1,0-4.6H66a2.26,2.26,0,0,1,2.3,2.3,2.35,2.35,0,0,1-2.4,2.3" transform="translate(39.12 9.2)" fill="#f15961"/>
          </g>
          <g clip-path="url(#a9f6e666-f700-4acd-86f8-a5857e022f51)">
            <path d="M19.12,166.5a1.3,1.3,0,0,1-1.2-.8,1.27,1.27,0,0,1,.8-1.6l4.4-1.6a7.24,7.24,0,0,1,4.6,0l2.5.9a5.11,5.11,0,0,0,3,0l2.5-.9a7.24,7.24,0,0,1,4.6,0l2.5.9a5.11,5.11,0,0,0,3,0l2.5-.9a7.24,7.24,0,0,1,4.6,0l2.5.9a5.11,5.11,0,0,0,3,0l2.5-.9a7.24,7.24,0,0,1,4.6,0l2.5.9a4.78,4.78,0,0,0,2.9,0l5-1.6a1.26,1.26,0,0,1,.8,2.4l-5,1.6a6.94,6.94,0,0,1-4.5-.1l-2.5-.9a5.11,5.11,0,0,0-3,0l-2.5.9a7.24,7.24,0,0,1-4.6,0l-2.5-.9a5.11,5.11,0,0,0-3,0l-2.5.9a7.24,7.24,0,0,1-4.6,0l-2.5-.9a5.11,5.11,0,0,0-3,0l-2.5.9a7.24,7.24,0,0,1-4.6,0l-2.5-.9a5.11,5.11,0,0,0-3,0l-4.4,1.6c-.1.1-.2.1-.4.1" transform="translate(39.12 9.2)" fill="#47c2bb"/>
          </g>
          <g clip-path="url(#a9f6e666-f700-4acd-86f8-a5857e022f51)">
            <path d="M76.12,163.6h-57v-3.2a4.65,4.65,0,0,1,4.6-4.6h52.4Z" transform="translate(39.12 9.2)" fill="#f9d1b7"/>
          </g>
          <g clip-path="url(#a9f6e666-f700-4acd-86f8-a5857e022f51)">
            <path d="M69.22,106.3h-8.9l-6.4-6.4a1.27,1.27,0,0,0-1.8,0l-.7.7a1.27,1.27,0,0,0,0,1.8l4,4h-2.2a1.58,1.58,0,0,0-1.6,1.6v10h19.1V108a1.48,1.48,0,0,0-1.5-1.7" transform="translate(39.12 9.2)" fill="#1b566b"/>
          </g>
          <g clip-path="url(#a9f6e666-f700-4acd-86f8-a5857e022f51)">
            <path d="M68.32,178.3H54.12a7.6,7.6,0,0,1-7.6-7.6V121.3a7.6,7.6,0,0,1,7.6-7.6h14.2a7.6,7.6,0,0,1,7.6,7.6v49.4a7.53,7.53,0,0,1-7.6,7.6" transform="translate(39.12 9.2)" fill="#b1e1f4"/>
          </g>
          <g clip-path="url(#a9f6e666-f700-4acd-86f8-a5857e022f51)">
            <path d="M81.52,157.1a12.27,12.27,0,0,1-1.2-2.6,5.66,5.66,0,0,1-.2-2.9,8.33,8.33,0,0,1,.4-1.5,5.67,5.67,0,0,1,.8-1.3,11.41,11.41,0,0,1,1.1-1.1,8.34,8.34,0,0,1,1.2-.8.89.89,0,0,1,1.3.3,1,1,0,0,1-.2,1.3h-.1l-.1.1a10.91,10.91,0,0,1-1.1.6,3.11,3.11,0,0,0-.9.7,5.5,5.5,0,0,0-.7.9,3.58,3.58,0,0,0-.4,1.1,6.47,6.47,0,0,0-.1,2.4,6.81,6.81,0,0,0,.8,2.4h0a.37.37,0,0,1-.2.5c0,.2-.3.1-.4-.1" transform="translate(39.12 9.2)" fill="#3a3f41"/>
          </g>
          <g clip-path="url(#a9f6e666-f700-4acd-86f8-a5857e022f51)">
            <path d="M81.32,156c-8.5-9.5-15.9.3-14.5,10.2,1.4,9.4,6.2,17.1,13.5,13.2a2,2,0,0,1,2,0c7.7,4,12.1-3.7,13.5-13.1,1.5-9.9-6-19.7-14.5-10.3" transform="translate(39.12 9.2)" fill="#f15961"/>
          </g>
          <g clip-path="url(#a9f6e666-f700-4acd-86f8-a5857e022f51)">
            <path d="M75.52,157.8a2,2,0,0,1-.8.4,2.31,2.31,0,0,0-1.1.8,1.63,1.63,0,0,1-2.4-2.2,5.31,5.31,0,0,1,3-1.8,1.77,1.77,0,0,1,1.9,1.3,1.89,1.89,0,0,1-.6,1.5" transform="translate(39.12 9.2)" fill="#fff"/>
          </g>
          <g clip-path="url(#a9f6e666-f700-4acd-86f8-a5857e022f51)">
            <path d="M71.82,161a1.33,1.33,0,1,1-1.6-1,1.35,1.35,0,0,1,1.6,1" transform="translate(39.12 9.2)" fill="#fff"/>
          </g>
          <g clip-path="url(#a9f6e666-f700-4acd-86f8-a5857e022f51)">
            <path d="M88.22,152.6c-2.1,0-4,.7-6.4,3.4v22.6c.3,0,.3.1.6.2a8.91,8.91,0,0,0,3.9,1.1c5.3,0,8-6.1,9.1-13.8,1-6.9-2.1-13.5-7.2-13.5" transform="translate(39.12 9.2)" fill="#ffedcc"/>
          </g>
          <g clip-path="url(#a9f6e666-f700-4acd-86f8-a5857e022f51)">
            <path d="M88.22,153a5.87,5.87,0,0,1,4.2,2.1c2.2,2.5,3.2,6.8,2.7,10.9-1.2,8.5-4.5,13.5-8.7,13.5a7.57,7.57,0,0,1-3.6-1,3.19,3.19,0,0,0-1.4-.3v.8a3.55,3.55,0,0,1,1,.2,8.91,8.91,0,0,0,3.9,1.1c5.3,0,8.5-6.5,9.6-14.2,1-7-2.5-14-7.7-14-2.1,0-4.4,1.1-6.8,3.8v1.2l.6-.7c2-2.2,4.2-3.4,6.2-3.4" transform="translate(39.12 9.2)" fill="#f05a60"/>
          </g>
          <g clip-path="url(#a9f6e666-f700-4acd-86f8-a5857e022f51)">
            <path d="M84.92,167.6l-1.2-1.2a.28.28,0,0,0-.5.2v1.7a1.33,1.33,0,0,0,.6,1,1.1,1.1,0,0,0,1.4-.6,2.28,2.28,0,0,0-.3-1.1" transform="translate(39.12 9.2)" fill="#3a3f41"/>
          </g>
        </g>
        <path d="M69.12,306.8a4,4,0,0,0,3.9-3.4l5.6-48.2a3.83,3.83,0,0,0-3.9-4.3H55.82c-3.4-4.1-9.5-6.9-16.5-6.9s-13.2,2.8-16.5,6.9H3.92A3.94,3.94,0,0,0,0,255.2l5.6,48.2a3.82,3.82,0,0,0,3.9,3.4Z" transform="translate(39.12 9.2)" fill="#d8e5e9"/>
        <path d="M55.52,266.2l2.6-5.3a10.22,10.22,0,0,1,9.2-5.7,5.24,5.24,0,0,1,5.2,5.9l-3.1,27a14.31,14.31,0,0,1-14.3,12.7H23.32A14.39,14.39,0,0,1,9,288.1l-3.1-27a5.29,5.29,0,0,1,5.2-5.9,10.22,10.22,0,0,1,9.2,5.7l2.6,5.3a8.13,8.13,0,0,0,7.2,4.5h18.1a7.88,7.88,0,0,0,7.3-4.5" transform="translate(39.12 9.2)" fill="#697079"/>
        <path d="M51.82,264.3l1.6-5.7-1.6-1.9c-2.5-3.1-7.3-5-12.5-5s-10,1.9-12.5,5l-1.6,1.9,1.6,5.7Z" transform="translate(39.12 9.2)" fill="#f4f8fa"/>
        <path d="M39.32,254a.47.47,0,0,0-.5.5v2.1a.5.5,0,0,0,1,0v-2.1c-.1-.3-.3-.5-.5-.5" transform="translate(39.12 9.2)" fill="#1a586b"/>
        <path d="M30.22,261.5l-1.8-1.1c-.1-.1-.2-.1-.4-.1s-.2.1-.3.2-.1.2-.1.4.1.2.2.3l1.8,1.1a.35.35,0,0,1,.2.1.52.52,0,0,0,.4-.2c.1-.1.1-.2.1-.4s0-.2-.1-.3" transform="translate(39.12 9.2)" fill="#1a586b"/>
        <path d="M46.12,255.9a.4.4,0,0,0-.6.2l-1.1,1.8a.4.4,0,0,0,.2.6.35.35,0,0,1,.2.1.52.52,0,0,0,.4-.2l1.1-1.8a.57.57,0,0,0-.2-.7" transform="translate(39.12 9.2)" fill="#1a586b"/>
        <path d="M33.32,256a.48.48,0,0,0-.6-.2c-.1.1-.2.2-.2.3v.4l1,1.8a.52.52,0,0,0,.4.2c.1,0,.2,0,.2-.1s.2-.2.2-.3v-.4Z" transform="translate(39.12 9.2)" fill="#1a586b"/>
        <path d="M50.92,260.8a.48.48,0,0,0-.6-.2l-1.8,1a.48.48,0,0,0-.2.6.52.52,0,0,0,.4.2c.1,0,.2,0,.2-.1l1.8-1c.3,0,.3-.3.2-.5" transform="translate(39.12 9.2)" fill="#1a586b"/>
        <path d="M39.12,260.8h-.4l-1-3.7a.51.51,0,1,0-1,.2l.6,3.8a6.56,6.56,0,0,0-3.9,3.2H45a6.82,6.82,0,0,0-5.9-3.5" transform="translate(39.12 9.2)" fill="#f6915a"/>
        <g>
          <g clip-path="url(#bcca85bd-1ef9-429a-92d7-1948494a23ba)">
            <rect x="71.83" y="28.8" width="384.3" height="318" fill="#b1e1f4"/>
          </g>
          <g clip-path="url(#bcca85bd-1ef9-429a-92d7-1948494a23ba)">
            <path d="M163,170.1h4.9a6.51,6.51,0,0,0,5.4-2.8,7.24,7.24,0,0,1,5.8-3.1,5,5,0,0,1,4.6,3,3,3,0,0,0,2.6,1.7h2.1a3.16,3.16,0,0,1,3.2,3.2,1.58,1.58,0,0,1-1.6,1.6h-15.3a1.37,1.37,0,0,0-1.4,1.4,1.37,1.37,0,0,1-1.4,1.4h-9.6a2.65,2.65,0,0,1-2.6-2.6v-.5a3.33,3.33,0,0,1,3.3-3.3" transform="translate(39.12 9.2)" fill="#f4f8fa"/>
          </g>
          <g clip-path="url(#bcca85bd-1ef9-429a-92d7-1948494a23ba)">
            <path d="M224.12,152.3h7.5a3.48,3.48,0,0,0,3.5-3.5,8,8,0,0,1,8-8h29.7v37.5H250a3.76,3.76,0,0,1-3.7-3.7,6.12,6.12,0,0,1,6.1-6.1h13.4a2.22,2.22,0,0,0,2.2-2.2,4.27,4.27,0,0,0-4.3-4.3H221a3.41,3.41,0,0,1-3.4-3.3,6.6,6.6,0,0,1,6.5-6.4" transform="translate(39.12 9.2)" fill="#f4f8fa"/>
          </g>
          <g clip-path="url(#bcca85bd-1ef9-429a-92d7-1948494a23ba)">
            <path d="M111.32,88.5h0a6.7,6.7,0,0,1,6.7-6.7h11.9a7.41,7.41,0,0,0,6.5-3.9,8,8,0,0,1,7-4.2h11a20.65,20.65,0,0,1,16,7.6,14.09,14.09,0,0,0,10.9,5.2,12.34,12.34,0,0,0,7.2-2.3l1.2-.9A24.61,24.61,0,0,1,204,78.7h9.4a21.37,21.37,0,0,1,20.3,14.9l1.6,5a10.2,10.2,0,0,0,9.8,7.2h10a11.52,11.52,0,0,1,10.8,7.6,3.47,3.47,0,0,1-3.2,4.6h-69.3a12.2,12.2,0,0,1-8-3l-1.5-1.3a13.26,13.26,0,0,0-8.7-3.3H142a3.69,3.69,0,0,1-3.7-3.7,5.91,5.91,0,0,1,5.9-5.9h13.3a2.31,2.31,0,0,0,2.1-3.3,10.8,10.8,0,0,0-9.8-6.3h-35.6a2.62,2.62,0,0,1-2.9-2.7" transform="translate(39.12 9.2)" fill="#f4f8fa"/>
          </g>
          <g clip-path="url(#bcca85bd-1ef9-429a-92d7-1948494a23ba)">
            <path d="M356.92,43.5V71.7h-48.8a19.45,19.45,0,0,1-14.3-6.2l-1.9-2a13.1,13.1,0,0,0-9.6-4.2h-11.6a24.73,24.73,0,0,1-13-3.6l-7-4.2a19.33,19.33,0,0,0-9.6-2.7h-10.5a38,38,0,0,1-19.4-5.3Z" transform="translate(39.12 9.2)" fill="#f4f8fa"/>
          </g>
          <g clip-path="url(#bcca85bd-1ef9-429a-92d7-1948494a23ba)">
            <path d="M297.52,113.4a7.28,7.28,0,0,1-.9,4.1,10.27,10.27,0,0,1-2.6,1.9c-4.4,2.7-6.5,8-7.8,13.1a70.66,70.66,0,0,0,1.3,39.2c1,3.2,2.4,6.4,4.9,8.6,2,1.6,4.5,2.5,6.4,4.1,4.2,3.6,4.8,10,7.4,15,3.7,7.2,12,11,19.8,10.8s15.3-4,21.5-9.1c6.7-5.6,12.3-12.9,14.7-21.5s1.2-18.4-4-25.5c-3.1-4.2-7.6-7.5-9.6-12.4-1.3-3.4-1.3-7.3-2.7-10.7-1.9-4.4-6.2-7.4-7.7-12-1.3-4-.3-8.4,0-12.6.5-8.3-2.5-16.9-8.7-22.1-5.8-4.9-17.1-7-23.6-2.2-9.6,7.1-8.5,20.7-8.4,31.3" transform="translate(39.12 9.2)" fill="#0e9d97"/>
          </g>
          <g clip-path="url(#bcca85bd-1ef9-429a-92d7-1948494a23ba)">
            <path d="M347.72,176.8a.78.78,0,0,0-.9-.6c-1.1.1-2.2.3-3.2.4-1.3.1-2.7.2-4,.2h-3.1c3.7-3.5,7.4-7,11.1-10.4a1.42,1.42,0,0,0,.1-2,1.55,1.55,0,0,0-2-.3c-5,3.5-9.9,7.1-14.8,10.7-3.3,2.4-6.7,4.9-10,7.4l.1-3.2.3-9c.2-7.9.4-15.7.5-23.6a.1.1,0,0,1,.1-.1c.2-.4.5-.8.7-1.2l.8-1.2.8-1.2c1.1-1.5,2.3-3.1,3.5-4.6,2.2-2.8,4.5-5.6,6.8-8.4a.79.79,0,0,0-.1-1.1h0a.78.78,0,0,0-1.1,0c-2.5,2.6-4.9,5.3-7.3,8-1.3,1.5-2.6,2.9-3.8,4.4l-.3.4v-7.5c-.1-6-.1-12-.3-18l-.2-4.5c-.1-1.5-.1-3-.2-4.5-.1-2.6-.3-5.1-.5-7.7a1.36,1.36,0,0,0-1.5-1.2,1.32,1.32,0,0,0-1.2,1.4c.1,2.5.2,5.1.2,7.6,0,1.5,0,3,.1,4.5V116c0,6-.1,11.9-.3,17.9-.2,5.8-.4,11.5-.7,17.3-.2-.3-.5-.6-.8-1-1.9-2.2-3.7-4.5-5.6-6.8l-1.4-1.7v-.4l-.1-.7-.1-.7-.1-1.5-.1-1.5q-.15-3,0-6c.1-2,.2-4,.4-6,.2-1.7.4-3.5.7-5.2a.76.76,0,0,0-1.5-.3c-.4,1.7-.7,3.5-1,5.2-.3,2-.6,4-.8,6.1s-.3,4.1-.4,6.1v1l-1.1-1.4c-1.6-2.1-3.2-4.1-4.7-6.2a1,1,0,0,0-1.7,1.1c1.3,2.3,2.7,4.5,4.1,6.7,1.6,2.5,3.1,5,4.7,7.5s3.2,5,4.9,7.4c1.4,2,2.8,4.1,4.2,6.1l-.6,10.5-.6,8.9-.7,8.9-.3,4.5-.3,4.5-.3,4.5-.2,4.5c-.3,6-.4,12-.4,18.1,0,3,0,6,.1,9,0,1.5.1,3,.1,4.5l.1,2.3c0,.8.1,1.5.1,2.3l7.6-.6c-.1-.7-.1-1.4-.2-2.2l-.2-2.2c-.1-1.5-.2-2.9-.3-4.4-.2-3-.3-5.9-.4-8.9-.2-5.9-.3-11.9-.3-17.8l.1-4.4c0-1.5.1-3,.1-4.4s.1-3,.2-4.4V192c4.4-4.3,9-8.7,13.5-13h1.7c1.4,0,2.8-.1,4.2-.2s2.7-.3,4.1-.5l3.3-.6c.3,0,.5-.4.4-.9Z" transform="translate(39.12 9.2)" fill="#774331"/>
          </g>
          <g clip-path="url(#bcca85bd-1ef9-429a-92d7-1948494a23ba)">
            <path d="M135.32,179.8a12.35,12.35,0,0,0,.4,4.7c.6,1.9,2,3.5,2.7,5.4.4,1.2.6,2.5,1.1,3.7a7.81,7.81,0,0,0,5.1,3.9,20.81,20.81,0,0,0,6.6.4,5.83,5.83,0,0,0,2.6-.6,4.41,4.41,0,0,0,1.5-1.8c.9-1.5,1.9-3,2.8-4.4a11.44,11.44,0,0,0,2.2-4.9c.5-3.4-1.8-6.5-3.1-9.6-1.8-4.4-1.7-14.8-7-16.8-2.4-.9-5.1,2.2-6.7,3.7a26.24,26.24,0,0,0-5.4,7,24.55,24.55,0,0,0-2.8,9.3" transform="translate(39.12 9.2)" fill="#0e9d97"/>
          </g>
          <g clip-path="url(#bcca85bd-1ef9-429a-92d7-1948494a23ba)">
            <path d="M153,181.8h0a.33.33,0,0,0-.5,0c-.2.2-.5.4-.7.6a2.38,2.38,0,0,1-1.1.6,5.64,5.64,0,0,1-1.2.4h-.2c0-.7-.1-1.4-.1-2l-.6-8.7a.67.67,0,0,0-.6-.7c-.3,0-.5.4-.5.8.1,2.3.1,4.5.2,6.8-.1-.1-.1-.3-.2-.4s-.2-.3-.3-.5l-.3-.5-.3-.5a8.79,8.79,0,0,1-.6-1,2.65,2.65,0,0,0-.5-.6.36.36,0,0,0-.6.4,13,13,0,0,1,1,1.5l.3.5.2.5c.1.2.2.3.2.5s.2.3.2.5a8.3,8.3,0,0,1,.6,2.1c.1.2.1,1,.2,1.5v6.2c-.2-.1-.5-.3-.7-.4l-1.5-1.2a17.38,17.38,0,0,1-1.3-1.5c-.3-.4-.7-.9-1-1.3-.1-.2-.3-.2-.5-.1a.37.37,0,0,0-.2.5l.9,1.5a10.92,10.92,0,0,0,1.3,1.7c.5.6,1,1.1,1.5,1.6a8.64,8.64,0,0,0,1.6,1c0,7-.1,13-2.1,19.8h4.2c.2-1.5,0-4.1.1-5.6.3-5,0-10-.2-15l-.3-6c.1,0,.3-.1.4-.1.5-.2.9-.4,1.4-.6l1.2-.9a5,5,0,0,0,.7-.8c.1-.2.1-.5-.1-.6" transform="translate(39.12 9.2)" fill="#774331"/>
          </g>
          <g clip-path="url(#bcca85bd-1ef9-429a-92d7-1948494a23ba)">
            <path d="M126,153.5a15,15,0,0,1,3.6-3.9,4.32,4.32,0,0,1,2.5-1.1,6.6,6.6,0,0,1,1.4.1c4.3,1.1,6.3,5.3,6.3,10.1,0,1.9-.1,3.6,1.2,5.1a17.33,17.33,0,0,0,2.1,1.7c3.7,2.8,5,8.9,2.9,13.4a12.58,12.58,0,0,1-3.2,4,13.7,13.7,0,0,1-8.5,3.3,12.55,12.55,0,0,1-8.8-3.3c-3-2.5-5.9-5.4-7.2-9.5a10,10,0,0,1,0-6.6,5.69,5.69,0,0,1,2.1-2.7,2.46,2.46,0,0,1,2.2-.1c.2.1.4-.1.4-.3.2-1.3.9-4.9,1.3-6.2a11,11,0,0,1,1.7-4" transform="translate(39.12 9.2)" fill="#47c2bb"/>
          </g>
          <g clip-path="url(#bcca85bd-1ef9-429a-92d7-1948494a23ba)">
            <path d="M133.82,174.5c-.1.3-.3.7-.4,1s-.2.7-.3,1.1l-.3,1.1a14.19,14.19,0,0,0-.5,2.2c-.3,1.5-.5,2.9-.7,4.4l-.1,1.3c-.1,6.2,0,13.7.3,22.1-1.9-.4-3.8-.7-5.7-1,1.2-8.6,1.9-16.1,2.5-22.4a1.27,1.27,0,0,0-.1-.6l-.1-.6-.1-.3-.1-.3-.1-.6-.2-.6-.1-.3-.1-.6c-.1-.2-.1-.4-.2-.6a12.81,12.81,0,0,0-1.1-2.4,9,9,0,0,0-1.4-2c-.1-.1-.1-.2,0-.2a.31.31,0,0,1,.2-.1,7.28,7.28,0,0,1,1.8,1.7,17.68,17.68,0,0,1,1.6,2.2c.1.1.1.2.2.3.7-8.2,1.1-13.4,1.8-14.8a.71.71,0,0,1,.6-.3.7.7,0,0,1,.4.5c.3,1.3.1,5.4-.1,11.7l.2-.4a9.29,9.29,0,0,1,.5-1c.2-.3.3-.7.5-1a10.68,10.68,0,0,1,1.6-2.5.28.28,0,0,1,.5,0h0a.45.45,0,0,1,0,.5c-.3.7-.7,1.6-1,2.5" transform="translate(39.12 9.2)" fill="#774331"/>
          </g>
          <g clip-path="url(#bcca85bd-1ef9-429a-92d7-1948494a23ba)">
            <path d="M252.22,151.4a26.61,26.61,0,0,1,.9,10.8c-.8,4.2-3.9,7.7-4.8,11.8-1.2,5,1.3,10.3,4.2,14.4a30.37,30.37,0,0,0,12,9.9,23.52,23.52,0,0,0,13.3,2.2,22.81,22.81,0,0,0,13.4-7.8,42.12,42.12,0,0,0,7.7-13.7,38.9,38.9,0,0,0,2.2-9.4c.7-9-3.1-17.7-7.3-25.7-2.5-4.8-5.1-9.6-7.9-14.2a62,62,0,0,0-6.8-9.9,17.45,17.45,0,0,0-5.4-4.4c-10.1-5.1-20,4.2-22.8,13.5-1.7,5.6-1.1,11.3.1,16.9a47.38,47.38,0,0,0,1.2,5.6" transform="translate(39.12 9.2)" fill="#47c2bb"/>
          </g>
          <g clip-path="url(#bcca85bd-1ef9-429a-92d7-1948494a23ba)">
            <path d="M264.12,168.8c-.5-.6-.9-1.2-1.4-1.9a55.85,55.85,0,0,0-3.9-4.6.53.53,0,0,1,.1-.8.77.77,0,0,1,1,.1,84.14,84.14,0,0,1,11.4,14c.1.1.1.2.2.3-.4-.6-.1-2.1-.1-2.7,0-.9-.1-1.8-.1-2.7-.2-3.1-.4-6.3-.6-9.4l-.2-2.8-.2-2.8V155c0-.3-1.1-1.2-1.4-1.5a14.91,14.91,0,0,1-1.5-2,18.29,18.29,0,0,1-2.1-3.9c-.1-.2.1-.5.3-.6a.48.48,0,0,1,.6.2,21,21,0,0,0,3.9,5.1h0c-.3-4.4-.7-8.7-1.1-13.1a.68.68,0,0,1,.7-.7.87.87,0,0,1,.9.6q2.4,17.85,4.2,35.7c.2,2.3.4,4.7.6,7l.4-.5a65.32,65.32,0,0,1,10.4-9.9.91.91,0,0,1,1,0,.47.47,0,0,1,0,.8l-3.3,3.3c-.5.5-.9,1-1.4,1.5a1.27,1.27,0,0,0,.6-.1c1.2-.1,2.4-.1,3.6-.2h3.6c1,0,2.1.1,3.1.1a.41.41,0,1,1,0,.8c-1,0-2,.1-3,.1l-3.5.3c-1.2.1-2.3.3-3.5.5a9.47,9.47,0,0,0-2.9.7,8.68,8.68,0,0,0-1.7,2.2,28.18,28.18,0,0,0-2.9,5c.5,7,1,13.9,1.2,18,.3,5.9.7,11.9.8,17.8.1,2.6-.1,5.1-.1,7.7l-6,.5c.6-12,.8-23.9.5-35.8-.1-3.8-.2-7.5-.3-11.3,0-.7-.1-1.4-.1-2.2-.1-.3-.3-.6-.4-.9a87.65,87.65,0,0,0-4.9-8.4c-.3.2-2.4-2.8-2.5-3" transform="translate(39.12 9.2)" fill="#774331"/>
          </g>
          <g clip-path="url(#bcca85bd-1ef9-429a-92d7-1948494a23ba)">
            <path d="M129.52,207.8a25.58,25.58,0,0,1,1.3-5.9c.7-2.1,2.2-4.3,4.4-4.4a6.49,6.49,0,0,1,2.7.8,34.79,34.79,0,0,1,3.6,2.2,1.61,1.61,0,0,0,2.4-.6,19.28,19.28,0,0,1,5.4-7.2c3-2.2,7.1-3.2,10.5-1.8a11.16,11.16,0,0,1,5.7,6,16.81,16.81,0,0,1,1.1,7.7.76.76,0,0,0,.6.8,5.3,5.3,0,0,1,3.3,3.8,8.41,8.41,0,0,1-.2,4.7,243.31,243.31,0,0,0-40.8-6.1" transform="translate(39.12 9.2)" fill="#23b5aa"/>
          </g>
          <g clip-path="url(#bcca85bd-1ef9-429a-92d7-1948494a23ba)">
            <path d="M112,206.7a5.69,5.69,0,0,1,2.2-4.3c.3-.2.6-.3.8-.7a1.1,1.1,0,0,0,0-.8,10.6,10.6,0,0,1,1.1-5.8,7.26,7.26,0,0,1,3.4-3.9c2.6-1.2,5.9.5,7.3,3a12,12,0,0,1,1.3,6.2,2.93,2.93,0,0,0,1.9,2.7,7.27,7.27,0,0,1,3.3,2.4,8,8,0,0,1,1.4,2.6,187.6,187.6,0,0,0-22.7-1.4" transform="translate(39.12 9.2)" fill="#0e9d97"/>
          </g>
          <g clip-path="url(#bcca85bd-1ef9-429a-92d7-1948494a23ba)">
            <path d="M215,218.7c.5-3.4.9-8.3-.3-11.4-1.4-3.7-6.1-5.6-9.7-5.2a12.9,12.9,0,0,0-8.4,4.6,1.79,1.79,0,0,1-2.6.1,6.4,6.4,0,0,0-5.6-1.6,6.69,6.69,0,0,0-4.6,4.2,1.94,1.94,0,0,1-1.7,1.3,4.19,4.19,0,0,0-2.1.8,8.08,8.08,0,0,0-1.6,1.6,331.21,331.21,0,0,1,36.6,5.6" transform="translate(39.12 9.2)" fill="#0e9d97"/>
          </g>
          <g clip-path="url(#bcca85bd-1ef9-429a-92d7-1948494a23ba)">
            <path d="M302.52,237.1a52.6,52.6,0,0,1,3.8-11.4c1.9-3.9,5.2-8,9.6-7.7a11.25,11.25,0,0,1,5.2,2.1,45.61,45.61,0,0,1,6.5,5.1,3.09,3.09,0,0,0,4.8-.7c3.1-5.2,7.1-9.9,12.3-12.9,6.3-3.7,14.6-4.7,21.1-1.2a21.16,21.16,0,0,1,9.9,13.1,36.35,36.35,0,0,1,.5,15.4,1.68,1.68,0,0,0,.9,1.8,10.59,10.59,0,0,1,5.7,8.1,18.3,18.3,0,0,1-1.3,9.2,518,518,0,0,0-79-20.9" transform="translate(39.12 9.2)" fill="#47c2bb"/>
          </g>
          <g clip-path="url(#bcca85bd-1ef9-429a-92d7-1948494a23ba)">
            <path d="M271.72,231.4c.8-3.3,2.2-6.5,5.2-8,.6-.3,1.3-.5,1.6-1.1a3,3,0,0,0,.2-1.6c-.1-3.9,1.4-7.8,3.4-11.2,1.8-3,4.2-5.9,7.5-7,5.5-1.8,11.4,2.3,13.7,7.6,1.7,3.9,1.7,8.2,1.3,12.5a5.72,5.72,0,0,0,3.2,5.8,14.89,14.89,0,0,1,6,5.4,20.22,20.22,0,0,1,2.3,5.5,398.52,398.52,0,0,0-44.4-7.9" transform="translate(39.12 9.2)" fill="#0e9d97"/>
          </g>
          <g clip-path="url(#bcca85bd-1ef9-429a-92d7-1948494a23ba)">
            <path d="M188.42,213.5c-51-7.4-102.7-12.8-153.9-6.8a11,11,0,0,1-1.8.2V398.6H417V261.2a1936.77,1936.77,0,0,0-228.6-47.7" transform="translate(39.12 9.2)" fill="#47c2bb"/>
          </g>
          <g clip-path="url(#bcca85bd-1ef9-429a-92d7-1948494a23ba)">
            <rect x="71.83" y="298.2" width="384.3" height="54.9" fill="#d8e5e9"/>
          </g>
          <g clip-path="url(#bcca85bd-1ef9-429a-92d7-1948494a23ba)">
            <path d="M245.52,263.6l2.2-52.1V206h-38.6v5.5l-2.3,53.5s.9,32.4.6,39.9c3,.4,7,.8,10,1.1l1.7-42.5,5.9-38.2h4l4,39.6,15.1,39.2.3,1.2c2.5-.9,7-2.7,9.4-3.6Z" transform="translate(39.12 9.2)" fill="#efb87b"/>
          </g>
          <g clip-path="url(#bcca85bd-1ef9-429a-92d7-1948494a23ba)">
            <path d="M251,181.4a10.87,10.87,0,0,0,.9-12.3c-.8-1.4-1.5-2.5-1.5-2.5a1.09,1.09,0,0,0-.2-.4c-3.2-6.6-7.4-13.2-13.3-17.8-2.9-2.3-6.3-3.6-9.9-1.8a9.1,9.1,0,0,0-2.8,2.3,7.24,7.24,0,0,0,.4,9.2,15.93,15.93,0,0,0,1.3,1.3,38.33,38.33,0,0,1,2.9,2.8,53,53,0,0,1,5,6.7,61.11,61.11,0,0,1,3.6,6.1c.2.3.5.2.9,0-2.1,2.8-4.4,5.5-6.7,8.2a51.91,51.91,0,0,1-8.7,6.8,7.74,7.74,0,0,1-1.6.7,6.09,6.09,0,0,0-3.9,3.3c0,.1-.1.1-.1.2a1.1,1.1,0,0,0,.7,1.3c-4.8,7.5,3.9,11.7,10.5,6.9v-.1c.3-.2,1.6-1.4,3.3-2.9a103.44,103.44,0,0,0,9.6-7.6c4.1-3.6,6.2-6.3,9.6-10.4h0" transform="translate(39.12 9.2)" fill="#efb87b"/>
          </g>
          <g clip-path="url(#bcca85bd-1ef9-429a-92d7-1948494a23ba)">
            <path d="M207.32,306.2c-.5,2.9-2.1,3.9-7.4,5s-9.6,2.1-9.6,2.1a1.23,1.23,0,0,0-.7,1.1v.6l27.3,3.7.5-12.8c-3-.3-7-.8-10-1.1a4.55,4.55,0,0,1-.1,1.4" transform="translate(39.12 9.2)" fill="#10bef0"/>
          </g>
          <g clip-path="url(#bcca85bd-1ef9-429a-92d7-1948494a23ba)">
            <path d="M247.82,265V206h-38.6v5.5l-2.3,53.5h15.2l5.3-39.6L230,265Z" transform="translate(39.12 9.2)" fill="#103540"/>
          </g>
          <g clip-path="url(#bcca85bd-1ef9-429a-92d7-1948494a23ba)">
            <path d="M235.72,138.9c-.1,0-8.5,1.5-8.5,1.5h0c-14.6,3.2-18,18.2-18,25.3v40.4h38.5c0-4.4-.1-40.1-.1-55.5a11.81,11.81,0,0,0-11.4-11.8,1.75,1.75,0,0,1-.5.1" transform="translate(39.12 9.2)" fill="#0383a4"/>
          </g>
          <g clip-path="url(#bcca85bd-1ef9-429a-92d7-1948494a23ba)">
            <polygon points="263.53 135 273.83 135 274.73 148.2 262.93 155.6 263.53 135" fill="#efb87b"/>
          </g>
          <g clip-path="url(#bcca85bd-1ef9-429a-92d7-1948494a23ba)">
            <path d="M228.72,108.9c-5.8-.6-8.8,2.8-10.6,9-.3.8-1.6,4.7-1.3,5.5a2.74,2.74,0,0,0,2.4,1.5c.3,5.6.1,9.1,5.8,9.1,4.9,0,10.2-2.5,11.1-11.5.6-7.1-1.2-12.9-7.4-13.6" transform="translate(39.12 9.2)" fill="#efb87b"/>
          </g>
          <g clip-path="url(#bcca85bd-1ef9-429a-92d7-1948494a23ba)">
            <path d="M239.72,117.3a8.06,8.06,0,0,0-1.4-1.2,9.52,9.52,0,0,1-2.5-2.4c-1.7-.1-3.3,0-5,0a4.14,4.14,0,0,1,.5,1.9,2,2,0,0,0,1.4,1.7c1.5.5,2.2,1.7,2.2,3.9,0,7,.1,8.9.1,8.9a108.19,108.19,0,0,1,4.7-12.8h0" transform="translate(39.12 9.2)" fill="#697079"/>
          </g>
          <g clip-path="url(#bcca85bd-1ef9-429a-92d7-1948494a23ba)">
            <path d="M223.62,152.6c-2.2.9-9.1,2.8-9.4,2.9q-3.15-3.6-6-7.5a53.64,53.64,0,0,1-4.9-9.8,10.46,10.46,0,0,1-.4-1.7,6.27,6.27,0,0,0-2.5-4.5c-.1,0-.1-.1-.2-.1a1.05,1.05,0,0,0-1.4.5c-6.4-6.2-12.2,1.4-8.9,8.9h0c.2.3,1,1.9,2.1,3.8a94.79,94.79,0,0,0,5.6,11,98.77,98.77,0,0,0,8.6,11.8c1,1.2,4.2,3.7,7.5,3q3.6-.6,7.2-1.5a74.36,74.36,0,0,0,10.4-3.4c1.8-4.5-5.6-14.5-7.7-13.4" transform="translate(39.12 9.2)" fill="#efb87b"/>
          </g>
          <g clip-path="url(#bcca85bd-1ef9-429a-92d7-1948494a23ba)">
            <path d="M211,105.9l27.8,13.5.6-1.2a8,8,0,0,0-2.5-10.1l-4-2.9a6.82,6.82,0,0,0-9.2,1.1l-2.7,3.1-9.6-4.5a.66.66,0,0,0-.7.2c-.1.4,0,.7.3.8" transform="translate(39.12 9.2)" fill="#f15961"/>
          </g>
          <g clip-path="url(#bcca85bd-1ef9-429a-92d7-1948494a23ba)">
            <path d="M204.92,141.9a16.39,16.39,0,0,0-5.9,1.8l-.2-.3a.88.88,0,0,0-1.3-.4l-2.8,1.4a.88.88,0,0,0-.4,1.3l.2.5a6.75,6.75,0,0,0-1.4,1.3c.5,1.2,1.1,2.3,1.7,3.5a3.94,3.94,0,0,1,1.4-1.5.88.88,0,0,0,1.3.4l2.7-1.4a.88.88,0,0,0,.4-1.3l-.1-.2c1.1-.9,3.8-1.6,6-1.8-.6-1.3-1.2-2.4-1.6-3.3" transform="translate(39.12 9.2)" fill="#d8e5e9"/>
          </g>
          <g clip-path="url(#bcca85bd-1ef9-429a-92d7-1948494a23ba)">
            <path d="M199.52,148l-2.2,1.1a.78.78,0,0,1-1-.3l-1.5-3a.78.78,0,0,1,.3-1l2.2-1.1a.78.78,0,0,1,1,.3l1.5,3a.78.78,0,0,1-.3,1" transform="translate(39.12 9.2)" fill="#1b566b"/>
          </g>
          <g clip-path="url(#bcca85bd-1ef9-429a-92d7-1948494a23ba)">
            <path d="M245.52,313.5c-2.3,1.8,6,4.1,9.4,1.8l6-4.1-3-9.4c-2.3.9-6.8,2.7-9.4,3.6a8.18,8.18,0,0,1-3,8.1" transform="translate(39.12 9.2)" fill="#10bef0"/>
          </g>
          <g clip-path="url(#bcca85bd-1ef9-429a-92d7-1948494a23ba)">
            <path d="M217.22,310.7c-4.3,1.6-6.2-3.2-6.2-3.2l-.6-2.5a2,2,0,0,0-2-1.6h-1c0,1.4-.1,2.4-.1,2.8-.5,2.9-2.1,3.9-7.4,5s-9.6,2.1-9.6,2.1a1.23,1.23,0,0,0-.7,1.1v.6l27.3,3.7Z" transform="translate(39.12 9.2)" fill="#697079"/>
          </g>
          <g clip-path="url(#bcca85bd-1ef9-429a-92d7-1948494a23ba)">
            <path d="M251.62,317.5l9.3-6.3-1.5-4.5c-2.6,1.3-5.5-.9-5.5-.9l-1.8-1.9a2.12,2.12,0,0,0-2.5-.4,10.93,10.93,0,0,1-1.5.8c1.1,3.3-.3,6.3-3.1,8.4-2.3,1.8-6.8,3.3-8.3,3.8a1.33,1.33,0,0,0-1,1.5l.1.8h11.6a7,7,0,0,0,4.2-1.3" transform="translate(39.12 9.2)" fill="#697079"/>
          </g>
          <g clip-path="url(#bcca85bd-1ef9-429a-92d7-1948494a23ba)">
            <path d="M416,175.6a49.12,49.12,0,0,0-10,3.4c-9.2,4.4-16.5,12.2-21.4,21.1a79.93,79.93,0,0,0-8,22.9,5.11,5.11,0,0,1-6.6,3.9c-13.2-4.3-28.7-2.7-38.6,6.8-7.2,6.9-10.3,16.7-12.1,26.3-.1.4-.1,4.8-.2,5.2h97l-.1-89.6Z" transform="translate(39.12 9.2)" fill="#0e9d97"/>
          </g>
        </g>
        <g>
          <g clip-path="url(#bd1d4bb8-57d0-43e7-be6e-c4a175e0f45b)">
            <rect x="356.73" y="151.3" width="143.9" height="143.9" fill="#2180b7"/>
          </g>
          <g clip-path="url(#bd1d4bb8-57d0-43e7-be6e-c4a175e0f45b)">
            <rect x="356.73" y="251.1" width="143.9" height="44.1" fill="#1b566b"/>
          </g>
          <g clip-path="url(#bd1d4bb8-57d0-43e7-be6e-c4a175e0f45b)">
            <path d="M403.12,201.5H380v-9.7a1.32,1.32,0,0,1,1.3-1.3h20.5a1.32,1.32,0,0,1,1.3,1.3Z" transform="translate(39.12 9.2)" fill="#f4f8fa"/>
          </g>
          <g clip-path="url(#bd1d4bb8-57d0-43e7-be6e-c4a175e0f45b)">
            <path d="M403.32,255.6h-23.5a4.23,4.23,0,0,1-4.2-4.2V203.2a4.23,4.23,0,0,1,4.2-4.2h23.5a4.23,4.23,0,0,1,4.2,4.2v48.2a4.1,4.1,0,0,1-4.2,4.2" transform="translate(39.12 9.2)" fill="#f6915a"/>
          </g>
          <g clip-path="url(#bd1d4bb8-57d0-43e7-be6e-c4a175e0f45b)">
            <rect x="426.93" y="216.5" width="20" height="38.3" fill="#f4f8fa"/>
          </g>
          <g clip-path="url(#bd1d4bb8-57d0-43e7-be6e-c4a175e0f45b)">
            <path d="M424.52,170.5a2.44,2.44,0,1,1-1.5-3.1,2.5,2.5,0,0,1,1.5,3.1" transform="translate(39.12 9.2)" fill="#f69159"/>
          </g>
          <g clip-path="url(#bd1d4bb8-57d0-43e7-be6e-c4a175e0f45b)">
            <path d="M426.72,196.4a.88.88,0,0,0-.1-.7c-1.4-1.5-2.4-5.2-.2-11.5,2.3-6.7.2-10.9-4.8-12.6s-9.3.2-11.6,6.9c-2.2,6.3-5.3,8.5-7.3,8.8-.2,0-.5.2-.5.4h0a.68.68,0,0,0,.4.8l23.3,8.1c.3.4.6.2.8-.2Z" transform="translate(39.12 9.2)" fill="#fc6"/>
          </g>
          <g clip-path="url(#bd1d4bb8-57d0-43e7-be6e-c4a175e0f45b)">
            <path d="M422.42,196a3.45,3.45,0,1,1-2.1-4.4,3.34,3.34,0,0,1,2.1,4.4" transform="translate(39.12 9.2)" fill="#fc6"/>
          </g>
          <g clip-path="url(#bd1d4bb8-57d0-43e7-be6e-c4a175e0f45b)">
            <path d="M402.62,187.4c-.2,0-.5.2-.5.4h0a.68.68,0,0,0,.4.8l23.3,8.1a.68.68,0,0,0,.8-.4h0a.88.88,0,0,0-.1-.7,6.34,6.34,0,0,1-1.4-3.4l-19.3-6.7a5.27,5.27,0,0,1-3.2,1.9" transform="translate(39.12 9.2)" fill="#f69159"/>
          </g>
          <g clip-path="url(#bd1d4bb8-57d0-43e7-be6e-c4a175e0f45b)">
            <path d="M425.22,203.2c-.2,0-.3-.1-.4-.3a.48.48,0,0,1,.2-.6c4.5-2.1,6.3-7.8,4-12.6a.45.45,0,0,1,.8-.4,10.3,10.3,0,0,1-4.4,13.8c-.1.1-.1.1-.2.1" transform="translate(39.12 9.2)" fill="#48c1bc"/>
          </g>
          <g clip-path="url(#bd1d4bb8-57d0-43e7-be6e-c4a175e0f45b)">
            <path d="M399.12,194.5c-.2,0-.3-.1-.4-.3a11.09,11.09,0,0,1-.6-8,9.33,9.33,0,0,1,5-5.8.45.45,0,1,1,.4.8,8.25,8.25,0,0,0-4.5,5.3,9.74,9.74,0,0,0,.5,7.3.48.48,0,0,1-.2.6c0,.1-.1.1-.2.1" transform="translate(39.12 9.2)" fill="#48c1bc"/>
          </g>
          <g clip-path="url(#bd1d4bb8-57d0-43e7-be6e-c4a175e0f45b)">
            <path d="M427.52,206.9a.55.55,0,0,1-.5-.3.66.66,0,0,1,.2-.7,12.13,12.13,0,0,0,6.4-7.4,13.88,13.88,0,0,0-.7-10.2.51.51,0,0,1,.9-.5,15.52,15.52,0,0,1,.8,11,13.07,13.07,0,0,1-6.9,8c-.1.1-.1.1-.2.1" transform="translate(39.12 9.2)" fill="#48c1bc"/>
          </g>
          <g clip-path="url(#bd1d4bb8-57d0-43e7-be6e-c4a175e0f45b)">
            <path d="M395.22,196a.55.55,0,0,1-.5-.3,15,15,0,0,1-.8-11,13.07,13.07,0,0,1,6.9-8,.51.51,0,1,1,.5.9,12.13,12.13,0,0,0-6.4,7.4,13.88,13.88,0,0,0,.7,10.2.66.66,0,0,1-.2.7c0,.1-.1.1-.2.1" transform="translate(39.12 9.2)" fill="#48c1bc"/>
          </g>
        </g>
        <g>
          <g clip-path="url(#b3f172e4-f9ac-41e0-adc9-214b30d84366)">
            <rect x="22.57" y="232.85" width="157.31" height="184.21" transform="translate(-195.85 387.26) rotate(-81.67)" fill="#c962a5"/>
          </g>
          <g clip-path="url(#a6fa5235-171c-4873-ad55-6bbeb9a21632)">
            <path d="M166.52,297.2c-5.3-5-26.4-12.4-50,.6a32.75,32.75,0,0,1-5.8,2.5c-8.8,2.8-17.3,5.9-25.7,9.3-12.8,5.2-25.3,10.9-37.5,16.9s-24.1,12.4-35.9,19.1c-5.9,3.3-11.7,6.7-17.5,10.2-2.9,1.7-5.8,3.5-8.7,5.3l-4.4,2.7-2.2,1.4-2.4,1.5h0a34,34,0,0,0-10,47.1,34,34,0,0,0,47.1,10,26.69,26.69,0,0,0,3.2-2.4l1.6-1.3,1.7-1.4,3.6-2.9c2.4-1.9,4.8-3.8,7.3-5.7,4.9-3.8,9.9-7.5,14.9-11.2,10.1-7.3,20.3-14.5,30.7-21.2s20.9-13.1,31.5-19c5.3-2.8,10.5-5.6,15.8-8.1h0c18.8-4.1,36.4.8,38.9-25.4,16.4-1.5,9.4-22.8,3.8-28" transform="translate(39.12 9.2)" fill="#efb87b"/>
          </g>
          <g clip-path="url(#a6fa5235-171c-4873-ad55-6bbeb9a21632)">
            <path d="M104.72,360.7c1.2-.7,2.3-1.3,3.5-1.9,4.6-2.5,9.3-4.9,13.9-7.2.5-1.6,1-3,1.3-3.9a45.08,45.08,0,0,0,.4-26.7l1.3-.7a3.68,3.68,0,0,0,1.6-5l-5.4-10.6a3.68,3.68,0,0,0-5-1.6l-1.8.9c-.9-1.1-3.6-2.2-4.9-3.2-4.7,1.5-9.2,3.1-13.8,4.8a11.6,11.6,0,0,1,6,4.9,3.76,3.76,0,0,0-1.6,5l5.4,10.6a3.68,3.68,0,0,0,5,1.6l.6-.3a42.91,42.91,0,0,1-6.5,33.3" transform="translate(39.12 9.2)" fill="#d8e5e9"/>
          </g>
          <g clip-path="url(#a6fa5235-171c-4873-ad55-6bbeb9a21632)">
            <path d="M106.52,322l-4.2-8.3a2.87,2.87,0,0,1,1.3-3.9l11.3-5.8a2.87,2.87,0,0,1,3.9,1.3l4.2,8.3a2.87,2.87,0,0,1-1.3,3.9l-11.3,5.8a3,3,0,0,1-3.9-1.3" transform="translate(39.12 9.2)" fill="#1b566b"/>
          </g>
          <g clip-path="url(#a6fa5235-171c-4873-ad55-6bbeb9a21632)">
            <path d="M115,318.2s3.8-5.8,2.4-8.8a3.15,3.15,0,0,0-6,1.4,3,3,0,0,0-3.4-.4,3.18,3.18,0,0,0-1.5,4.2c1.5,3,8.5,3.6,8.5,3.6" transform="translate(39.12 9.2)" fill="#ef5489"/>
          </g>
          <g clip-path="url(#a6fa5235-171c-4873-ad55-6bbeb9a21632)">
            <path d="M121.32,310.2l-3.6,1.8-1.5-.6H116a.1.1,0,0,0-.1.1l-.5,1.5-1,.5c-.1,0-.1.1-.1.2l-.1,1.7-3.1-4.1a.37.37,0,0,0-.3-.1c-.1,0-.1.1-.1.2l.9,4.2-1.5-1h-.2a.1.1,0,0,0-.1.1l-.6,1.3-4.5,2.2.2.4,4.6-2.2.1-.1.5-1.2,1.7,1.2c.1.1.2.1.2,0s.1-.1.1-.2l-.8-3.8,2.9,3.8c.1.1.1.1.2.1h0c.1,0,.1-.1.1-.2l.2-2.2.9-.5a.1.1,0,0,0,.1-.1l.4-1.4,1.4.5h.2l3.7-1.8Z" transform="translate(39.12 9.2)" fill="#f2d1e8"/>
          </g>
        </g>
        <path d="M151.62,166.3a29.2,29.2,0,1,1,29.2-29.2,29.23,29.23,0,0,1-29.2,29.2m0-51.5A22.4,22.4,0,1,0,174,137.2a22.43,22.43,0,0,0-22.4-22.4" transform="translate(39.12 9.2)" fill="#697079"/>
        <path d="M151.72,107.9v6.8a22.4,22.4,0,1,1-16.6,37.4l-5.1,4.6a29.22,29.22,0,1,0,21.7-48.8" transform="translate(39.12 9.2)" fill="#3b3f41"/>
        <path d="M142.12,142.1h0c.6-.2,6.8-1.6,6.8-1.6-.2-.8-.3-1.6-.5-2.6a14.94,14.94,0,0,1,0-5.6,12.18,12.18,0,0,0-.9-7.5c-.7-1.6-2.2-3.5-4.1-3.8s-3.5,1.3-4.1,3.1a14.35,14.35,0,0,0-.6,7.7,34.45,34.45,0,0,0,2.4,7.5,23.07,23.07,0,0,1,1,2.8" transform="translate(39.12 9.2)" fill="#9870b1"/>
        <path d="M149.12,141.5l-6.7,1.6c.3,1,.6,1.9.9,2.8a3.26,3.26,0,1,0,6.4-1.2,31.39,31.39,0,0,0-.6-3.2" transform="translate(39.12 9.2)" fill="#9870b1"/>
        <path d="M161.82,150.3h0c-.6-.2-6.8-1.6-6.8-1.6.2-.8.3-1.6.5-2.6a14.94,14.94,0,0,0,0-5.6,12.18,12.18,0,0,1,.9-7.5c.7-1.6,2.2-3.5,4.1-3.8s3.5,1.3,4.1,3.1a14.35,14.35,0,0,1,.6,7.7,34.45,34.45,0,0,1-2.4,7.5,23.07,23.07,0,0,0-1,2.8" transform="translate(39.12 9.2)" fill="#9870b1"/>
        <path d="M154.82,149.7l6.7,1.6a23.07,23.07,0,0,1-1,2.8,3.26,3.26,0,1,1-6.4-1.2c.3-1.4.5-2.4.7-3.2" transform="translate(39.12 9.2)" fill="#9870b1"/>
        <g>
          <g clip-path="url(#a7f5e389-adef-4557-bf70-932fbfbfd30e)">
            <rect x="176.63" width="156.4" height="131.8" fill="#fc6"/>
          </g>
          <g clip-path="url(#a7f5e389-adef-4557-bf70-932fbfbfd30e)">
            <path d="M163.92,97.5s20.2-34.1,39.6-39.4a7.62,7.62,0,0,1,9.3,4.8c3.3,9.6-2,22.3-2,22.3s16.5,7,11.9,37.4-58.8-25.1-58.8-25.1" transform="translate(39.12 9.2)" fill="#efb87b"/>
          </g>
          <g clip-path="url(#a7f5e389-adef-4557-bf70-932fbfbfd30e)">
            <path d="M214.32,49.8l-9.6,9.6a3.26,3.26,0,0,0,0,4.5l1.3,1.3a3.26,3.26,0,0,0,4.5,0l9.5-9.5Z" transform="translate(39.12 9.2)" fill="#48c1bc"/>
          </g>
          <g clip-path="url(#a7f5e389-adef-4557-bf70-932fbfbfd30e)">
            <path d="M208.72,63.2a.49.49,0,0,0-.9,0c-.8,1.5-2.2,4.6-2.2,6.2a2.7,2.7,0,0,0,5.4,0c-.1-1.6-1.6-4.7-2.3-6.2" transform="translate(39.12 9.2)" fill="#f05a60"/>
          </g>
          <g clip-path="url(#a7f5e389-adef-4557-bf70-932fbfbfd30e)">
            <path d="M255.42,14.5h0a16.24,16.24,0,0,0-22.9,0l-25.6,25.6a7.3,7.3,0,0,0,0,10.4l12.4,12.4a7.3,7.3,0,0,0,10.4,0l25.7-25.5a16.24,16.24,0,0,0,0-22.9" transform="translate(39.12 9.2)" fill="#a0d1e0"/>
          </g>
          <g clip-path="url(#a7f5e389-adef-4557-bf70-932fbfbfd30e)">
            <path d="M249.52,20.4a6.58,6.58,0,1,0,0,9.3,6.52,6.52,0,0,0,0-9.3" transform="translate(39.12 9.2)" fill="#48c1bc"/>
          </g>
          <g clip-path="url(#a7f5e389-adef-4557-bf70-932fbfbfd30e)">
            <path d="M237.12,40l-7.2-7.2a3.26,3.26,0,0,0-4.5,0l-10.7,10.8a3.26,3.26,0,0,0,0,4.5l7.2,7.2a3.26,3.26,0,0,0,4.5,0l10.7-10.7a3.2,3.2,0,0,0,0-4.6" transform="translate(39.12 9.2)" fill="#f4f8fa"/>
          </g>
          <g clip-path="url(#a7f5e389-adef-4557-bf70-932fbfbfd30e)">
            <path d="M241.52,35.8l-7.3-7.3a1,1,0,0,0-1.6,0,1.22,1.22,0,0,0,0,1.6l7.3,7.3a1.22,1.22,0,0,0,1.6,0,1.21,1.21,0,0,0,0-1.6" transform="translate(39.12 9.2)" fill="#48899b"/>
          </g>
        </g>
        <g clip-path="url(#aa32b871-6641-48b5-9c83-469cff9ba868)">
          <rect x="399.33" y="90.8" width="31" height="20" fill="url(#eb5362b7-4a50-465a-9fec-995c4c5b5c2b)"/>
        </g>
        <g clip-path="url(#bb237e9e-fbad-4e00-8ebd-c413c45fee4c)">
          <rect x="459.73" y="119.8" width="56.9" height="36.8" fill="url(#f2f0e09d-9f11-4f7b-beec-4f722fb5a996)"/>
        </g>
        <g clip-path="url(#a2cf8553-b43c-4951-a366-55055cf25170)">
          <rect x="42.33" y="200.2" width="31" height="20" fill="url(#a008ef3a-ce5d-4a49-98ed-a8508343da51)"/>
        </g>
        <path d="M263.22,604.2h220.9V467.7H160.22c18.4,58.1,55.4,106.6,103,136.5" transform="translate(39.12 9.2)" fill="#1b566b"/>
        <path d="M177.32,509.2h306.8V459.3H157.62a271.32,271.32,0,0,0,19.7,49.9" transform="translate(39.12 9.2)" fill="#47c2bb"/>
        <path d="M288.22,404.5h27.2l5.3,28.6a41.09,41.09,0,0,0,18.6,27.4l11.5,7.3-76.9,1.8,4-10.5a65.72,65.72,0,0,0,3.3-12.3Z" transform="translate(39.12 9.2)" fill="#103540"/>
        <path d="M188.72,529.1h295.4v-20H177.32a229.9,229.9,0,0,0,11.4,20" transform="translate(39.12 9.2)" fill="#0e9d97"/>
        <path d="M535.42,354.8l27.3-88.1a10.75,10.75,0,0,0-3.8-11.7c-11.6-8.8-36.5-26.1-39.6-15.1-20.2-17.2-39.5-10.1-26.5-2.6-14.6-.5-20.5-7.4-22.7-13.8a3.91,3.91,0,0,0-6.1-1.8c-6.8,5.4-16.4,16.6.9,28-9.1-.7-17.2-7.5-13.6,1.2s37.2,18.5,37.2,18.5Z" transform="translate(39.12 9.2)" fill="#774331"/>
        <path d="M518.42,421.1c13.8-6.3,14.6-30.6,16.9-37.8V295.4l-41.2,49-1,44.1a192.16,192.16,0,0,0-27.9,9.5c-7.4,6.6-5,13.4-5.4,14.7-2.6,9.1,40.1,16.9,58.6,8.4" transform="translate(39.12 9.2)" fill="#b26e4b"/>
        <polygon points="532.83 373.3 517.43 394.6 576.43 392.5 574.53 373.3 532.83 373.3" fill="#10bef0"/>
        <path d="M509.12,257.5c-24.8-8.3-34.2-3-45.1,23.6-1.6,3.3-9.4,20-8.3,23.9s5.7,6.9,9.8,7.9c-1.4,24.8,1.5,38.7,17,41.9,21.1,4.3,49.8-11.7,57.8-50.7,1.5-7.4,2.4-13.3,2.4-18.1a32.68,32.68,0,0,0-.5-5.7c-1.2-6-4.4-10-10.3-13.5-5.3-3.3-12.7-6-22.8-9.3" transform="translate(39.12 9.2)" fill="#b26e4b"/>
        <path d="M525.42,255.3c0,16.5-15.1,22.9-15.1,22.9a17.11,17.11,0,0,1,4.4,11.4v9.5l10.7,22.4s10,16.1,10,33.3c7.1-39.2,7.3-50.1,7.3-50.1l3.1-41.6c.1,0-20.4-25.8-20.4-7.8" transform="translate(39.12 9.2)" fill="#774331"/>
        <path d="M466.82,340.4a102.74,102.74,0,0,1-12.2-.4l.2-3.4c48.2,4.3,64.8-25.7,65-26l2.7,1.8c-.7,1.1-15,26.9-55.7,28" transform="translate(39.12 9.2)" fill="#103541"/>
        <path d="M458.42,341.8l-9.8-2.9a1.85,1.85,0,0,1-1.2-2.2l1.3-4.3a1.85,1.85,0,0,1,2.2-1.2l9.8,2.9a1.85,1.85,0,0,1,1.2,2.2l-1.3,4.3a1.73,1.73,0,0,1-2.2,1.2" transform="translate(39.12 9.2)" fill="#103541"/>
        <path d="M549.52,248.5a73.93,73.93,0,0,0-13.5-8.6c9.2,16.8-4.1,41.1-11.1,52a15.94,15.94,0,1,0,12.7,18.7,15.64,15.64,0,0,0,0-6.1c6.7-8.6,25.3-35.8,11.9-56" transform="translate(39.12 9.2)" fill="#103541"/>
        <path d="M284.62,539.8a68.22,68.22,0,0,0-48.8,20.5l-12.1,12.4a228.62,228.62,0,0,0,39.5,31.5h174.9l27.1-4.8-22.9-59.6Z" transform="translate(39.12 9.2)" fill="#103541"/>
        <path d="M439.52,492.9H244.62a2.28,2.28,0,0,1-1.9-1l-10-15.2a2.26,2.26,0,0,1,1.9-3.5h194.8a2.28,2.28,0,0,1,1.9,1l10,15.2a2.19,2.19,0,0,1-1.8,3.5" transform="translate(39.12 9.2)" fill="#103540"/>
        <path d="M335.22,486.9a27.39,27.39,0,0,1,15.6-24.7L315,463.5c-7.9-11-21.2-35-46.3,0-7.8,11,2.2,17.6,8.4,20.4,3.4,1.6,6.8,3.2,10.1,5a192.29,192.29,0,0,0,58.9,19.7,27.27,27.27,0,0,1-10.9-21.7" transform="translate(39.12 9.2)" fill="#b26e4b"/>
        <path d="M401.12,509.2l-16.3,53.6s-9.5,25.6-7.4,38.3,102.5-40.7,102.5-40.7l35.3-62.8h28.7l42.5-70.4A51.38,51.38,0,0,0,535,375.8h-51.3a87.43,87.43,0,0,0-81.3,55.2,48.94,48.94,0,0,1-43.8,30.9l-7.8.3a27.38,27.38,0,0,0-4.8,46.5,183.44,183.44,0,0,0,55.1.5" transform="translate(39.12 9.2)" fill="#9870b1"/>
        <path d="M502.52,419a14,14,0,0,0-12.2,9.5c-85.4,250.1-251.7,156.6-251.7,156.6l-.1,1.1c38.2,31.9,85.7,50.8,137.2,50.8,115.6,0,211.2-95.5,226.4-219.4-39-2.7-81.3-.1-99.6,1.4" transform="translate(39.12 9.2)" fill="#0383a4"/>
        <path d="M395.12,421H253a6.31,6.31,0,0,1-6.2-5.1l-18.6-96.7a6.31,6.31,0,0,1,6.2-7.5h142.1a6.31,6.31,0,0,1,6.2,5.1l18.6,96.7a6.36,6.36,0,0,1-6.2,7.5" transform="translate(39.12 9.2)" fill="#103540"/>
        <path d="M381.92,325.4H234.62l16.5,86a5.92,5.92,0,0,0,5.9,4.8h135.1a6,6,0,0,0,5.9-7.1Z" transform="translate(39.12 9.2)" fill="#0383a4"/>
        <path d="M307.82,351h-61.9a1,1,0,0,1-1-.8l-3.8-19.5a1.06,1.06,0,0,1,1-1.2H304a1,1,0,0,1,1,.8l3.8,19.5a1,1,0,0,1-1,1.2" transform="translate(39.12 9.2)" fill="#0e98be"/>
        <path d="M314.12,384h-61.9a1,1,0,0,1-1-.8l-5-26.1a1.06,1.06,0,0,1,1-1.2h61.9a1,1,0,0,1,1,.8l5,26.1a1,1,0,0,1-1,1.2" transform="translate(39.12 9.2)" fill="#0e98be"/>
        <path d="M260.42,340.4a5,5,0,0,1-5.1,6.3,8,8,0,0,1-7.5-6.3,5,5,0,0,1,5.1-6.3,7.89,7.89,0,0,1,7.5,6.3" transform="translate(39.12 9.2)" fill="#0080a3"/>
        <path d="M293.42,337.3h-27.7a.67.67,0,0,1-.7-.6.75.75,0,0,1,.7-.9h27.7a.75.75,0,0,1,0,1.5" transform="translate(39.12 9.2)" fill="#0080a3"/>
        <path d="M294.32,341.1h-27.7a.67.67,0,0,1-.7-.6.75.75,0,0,1,.7-.9h27.7a.67.67,0,0,1,.7.6.74.74,0,0,1-.7.9" transform="translate(39.12 9.2)" fill="#0080a3"/>
        <path d="M287.62,344.8h-20.4a.67.67,0,0,1-.7-.6.75.75,0,0,1,.7-.9h20.4a.67.67,0,0,1,.7.6.74.74,0,0,1-.7.9" transform="translate(39.12 9.2)" fill="#0080a3"/>
        <path d="M319.42,411.4h-61.9a1,1,0,0,1-1-.8l-3.9-20.5a1.06,1.06,0,0,1,1-1.2h61.9a1,1,0,0,1,1,.8l3.9,20.5a1.06,1.06,0,0,1-1,1.2" transform="translate(39.12 9.2)" fill="#0e98be"/>
        <path d="M390.52,402.1h-66.9a1,1,0,0,1-1-.8L309,330.8a1.06,1.06,0,0,1,1-1.2h66.9a1,1,0,0,1,1,.8l13.6,70.5a1.06,1.06,0,0,1-1,1.2" transform="translate(39.12 9.2)" fill="#0e98be"/>
        <path d="M318,337.4a2,2,0,0,1-2,2.5,3,3,0,0,1-2.9-2.5,2,2,0,0,1,2-2.5,3.2,3.2,0,0,1,2.9,2.5" transform="translate(39.12 9.2)" fill="#0080a3"/>
        <path d="M365.32,358h-40.6a.85.85,0,0,1-.8-.7l-4.2-21.9a.85.85,0,0,1,.8-1h40.6a.85.85,0,0,1,.8.7l4.2,21.9a.85.85,0,0,1-.8,1" transform="translate(39.12 9.2)" fill="#0080a3"/>
        <path d="M356.12,348.4h-28.3a.43.43,0,0,1-.4-.4.4.4,0,0,1,.4-.5h28.3a.43.43,0,0,1,.4.4c.1.2-.1.5-.4.5" transform="translate(39.12 9.2)" fill="#0e98be"/>
        <path d="M356.52,350.6h-28.3a.43.43,0,0,1-.4-.4.4.4,0,0,1,.4-.5h28.3a.43.43,0,0,1,.4.4c.1.2-.1.5-.4.5" transform="translate(39.12 9.2)" fill="#0e98be"/>
        <path d="M349.72,352.7h-21.1a.43.43,0,0,1-.4-.4.4.4,0,0,1,.4-.5h21.1a.43.43,0,0,1,.4.4c.1.3-.1.5-.4.5" transform="translate(39.12 9.2)" fill="#0e98be"/>
        <path d="M377.82,376.8h-40.6a.85.85,0,0,1-.8-.7l-2.2-11.6a.85.85,0,0,1,.8-1h40.6a.85.85,0,0,1,.8.7l2.2,11.6a.85.85,0,0,1-.8,1" transform="translate(39.12 9.2)" fill="#0080a3"/>
        <path d="M368.92,368.6h-28.3a.43.43,0,0,1-.4-.4.4.4,0,0,1,.4-.5h28.3a.43.43,0,0,1,.4.4c.1.2-.1.5-.4.5" transform="translate(39.12 9.2)" fill="#0e98be"/>
        <path d="M369.52,370.7h-28.3a.43.43,0,0,1-.4-.4.4.4,0,0,1,.4-.5h28.3a.43.43,0,0,1,.4.4c.1.3-.1.5-.4.5" transform="translate(39.12 9.2)" fill="#0e98be"/>
        <path d="M362.52,372.9h-21.1a.43.43,0,0,1-.4-.4.4.4,0,0,1,.4-.5h21.1a.43.43,0,0,1,.4.4.4.4,0,0,1-.4.5" transform="translate(39.12 9.2)" fill="#0e98be"/>
        <path d="M371.32,394.6h-40.6a.85.85,0,0,1-.8-.7l-2.2-11.6a.85.85,0,0,1,.8-1h40.6a.85.85,0,0,1,.8.7l2.2,11.6a.81.81,0,0,1-.8,1" transform="translate(39.12 9.2)" fill="#0080a3"/>
        <path d="M362.42,386.4h-28.3a.43.43,0,0,1-.4-.4.4.4,0,0,1,.4-.5h28.3a.43.43,0,0,1,.4.4c0,.2-.2.5-.4.5" transform="translate(39.12 9.2)" fill="#0e98be"/>
        <path d="M362.92,388.6h-28.3a.43.43,0,0,1-.4-.4.4.4,0,0,1,.4-.5h28.3a.43.43,0,0,1,.4.4c.1.2-.1.5-.4.5" transform="translate(39.12 9.2)" fill="#0e98be"/>
        <path d="M355.92,390.7h-21.1a.43.43,0,0,1-.4-.4.4.4,0,0,1,.4-.5h21.1a.43.43,0,0,1,.4.4c.1.3-.1.5-.4.5" transform="translate(39.12 9.2)" fill="#0e98be"/>
        <path d="M383.22,365.7a2,2,0,0,1-2,2.5,3,3,0,0,1-2.9-2.5,2,2,0,0,1,2-2.5,3.17,3.17,0,0,1,2.9,2.5" transform="translate(39.12 9.2)" fill="#0080a3"/>
        <path d="M326.22,383.3a2,2,0,0,1-2,2.5,3,3,0,0,1-2.9-2.5,2,2,0,0,1,2-2.5,3.17,3.17,0,0,1,2.9,2.5" transform="translate(39.12 9.2)" fill="#0080a3"/>
        <path d="M324.22,403.6h66.9a1,1,0,0,1,1,.8l1.1,5.8a1.06,1.06,0,0,1-1,1.2h-66.9a1,1,0,0,1-1-.8l-1.1-5.8a1.06,1.06,0,0,1,1-1.2" transform="translate(39.12 9.2)" fill="#0e98be"/>
        <path d="M355.72,346.2h-28.3a.43.43,0,0,1-.4-.4.4.4,0,0,1,.4-.5h28.3a.43.43,0,0,1,.4.4c.1.3-.1.5-.4.5" transform="translate(39.12 9.2)" fill="#0e98be"/>
        <path d="M355.32,344H327a.43.43,0,0,1-.4-.4.4.4,0,0,1,.4-.5h28.3a.43.43,0,0,1,.4.4c.1.3-.1.5-.4.5" transform="translate(39.12 9.2)" fill="#0e98be"/>
        <path d="M354.92,341.9h-28.3a.43.43,0,0,1-.4-.4.4.4,0,0,1,.4-.5h28.3a.43.43,0,0,1,.4.4c.1.2-.2.5-.4.5" transform="translate(39.12 9.2)" fill="#0e98be"/>
        <path d="M354.42,339.7h-28.3a.43.43,0,0,1-.4-.4.4.4,0,0,1,.4-.5h28.3a.43.43,0,0,1,.4.4c.1.2-.1.5-.4.5" transform="translate(39.12 9.2)" fill="#0e98be"/>
        <path d="M307.22,372.5h-51.6a.43.43,0,0,1-.4-.4.4.4,0,0,1,.4-.5h51.6a.43.43,0,0,1,.4.4c.1.2-.2.5-.4.5" transform="translate(39.12 9.2)" fill="#0080a3"/>
        <path d="M307.62,374.6H256a.43.43,0,0,1-.4-.4.4.4,0,0,1,.4-.5h51.6a.43.43,0,0,1,.4.4c.1.3-.1.5-.4.5" transform="translate(39.12 9.2)" fill="#0080a3"/>
        <path d="M295,376.8h-38.5a.43.43,0,0,1-.4-.4.4.4,0,0,1,.4-.5H295a.43.43,0,0,1,.4.4.4.4,0,0,1-.4.5" transform="translate(39.12 9.2)" fill="#0080a3"/>
        <path d="M306.72,370.3h-51.6a.43.43,0,0,1-.4-.4.4.4,0,0,1,.4-.5h51.6a.43.43,0,0,1,.4.4c.1.2-.1.5-.4.5" transform="translate(39.12 9.2)" fill="#0080a3"/>
        <path d="M306.32,368.1h-51.6a.43.43,0,0,1-.4-.4.4.4,0,0,1,.4-.5h51.6a.43.43,0,0,1,.4.4c.1.2-.1.5-.4.5" transform="translate(39.12 9.2)" fill="#0080a3"/>
        <path d="M305.92,366h-51.6a.43.43,0,0,1-.4-.4.4.4,0,0,1,.4-.5h51.6a.43.43,0,0,1,.4.4c.1.2-.1.5-.4.5" transform="translate(39.12 9.2)" fill="#0080a3"/>
        <path d="M305.52,363.8h-51.6a.43.43,0,0,1-.4-.4.4.4,0,0,1,.4-.5h51.6a.43.43,0,0,1,.4.4c.1.2-.1.5-.4.5" transform="translate(39.12 9.2)" fill="#0080a3"/>
        <path d="M282.52,400.9h-21.1a.43.43,0,0,1-.4-.4.4.4,0,0,1,.4-.5h21.1a.43.43,0,0,1,.4.4c.1.2-.1.5-.4.5" transform="translate(39.12 9.2)" fill="#0080a3"/>
        <path d="M283,403h-21.1a.43.43,0,0,1-.4-.4.4.4,0,0,1,.4-.5H283a.43.43,0,0,1,.4.4.4.4,0,0,1-.4.5" transform="translate(39.12 9.2)" fill="#0080a3"/>
        <path d="M277.92,405.2h-15.7a.43.43,0,0,1-.4-.4.4.4,0,0,1,.4-.5h15.7a.43.43,0,0,1,.4.4c.1.3-.1.5-.4.5" transform="translate(39.12 9.2)" fill="#0080a3"/>
        <path d="M282.12,398.7H261a.43.43,0,0,1-.4-.4.4.4,0,0,1,.4-.5h21.1a.43.43,0,0,1,.4.4c.1.2-.1.5-.4.5" transform="translate(39.12 9.2)" fill="#0080a3"/>
        <path d="M281.72,396.5h-21.1a.43.43,0,0,1-.4-.4.4.4,0,0,1,.4-.5h21.1a.43.43,0,0,1,.4.4c.1.2-.1.5-.4.5" transform="translate(39.12 9.2)" fill="#0080a3"/>
        <path d="M311.62,400.4h-21.1a.43.43,0,0,1-.4-.4.4.4,0,0,1,.4-.5h21.1a.43.43,0,0,1,.4.4c.1.2-.1.5-.4.5" transform="translate(39.12 9.2)" fill="#0080a3"/>
        <path d="M312,402.6h-21.1a.43.43,0,0,1-.4-.4.4.4,0,0,1,.4-.5H312a.43.43,0,0,1,.4.4c.1.2-.1.5-.4.5" transform="translate(39.12 9.2)" fill="#0080a3"/>
        <path d="M306.92,404.7h-15.7a.43.43,0,0,1-.4-.4.4.4,0,0,1,.4-.5h15.7a.43.43,0,0,1,.4.4c.1.3-.1.5-.4.5" transform="translate(39.12 9.2)" fill="#0080a3"/>
        <path d="M311.22,398.2h-21.1a.43.43,0,0,1-.4-.4.4.4,0,0,1,.4-.5h21.1a.43.43,0,0,1,.4.4.4.4,0,0,1-.4.5" transform="translate(39.12 9.2)" fill="#0080a3"/>
        <path d="M310.72,396h-21.1a.43.43,0,0,1-.4-.4.4.4,0,0,1,.4-.5h21.1a.43.43,0,0,1,.4.4c.1.3-.1.5-.4.5" transform="translate(39.12 9.2)" fill="#0080a3"/>
        <path d="M390.82,410.2h-13.4a.85.85,0,0,1-.8-.7l-.7-3.8a.85.85,0,0,1,.8-1h13.4a.85.85,0,0,1,.8.7l.7,3.8a.81.81,0,0,1-.8,1" transform="translate(39.12 9.2)" fill="#0080a3"/>
      </g>
    </g>
  </g>
</svg>
